{
    "asset" : {
        "generator" : "Khronos glTF Blender I/O v1.0.5",
        "version" : "2.0"
    },
    "scene" : 0,
    "scenes" : [
        {
            "name" : "Scene",
            "nodes" : [
                7
            ]
        }
    ],
    "nodes" : [
        {
            "mesh" : 0,
            "name" : "Object_5"
        },
        {
            "children" : [
                0
            ],
            "name" : "Plane_0",
            "scale" : [
                11.980916976928711,
                11.980916976928711,
                11.980916976928711
            ],
            "translation" : [
                3.8999996185302734,
                -9.400007247924805,
                -8.199986457824707
            ]
        },
        {
            "mesh" : 1,
            "name" : "Object_7"
        },
        {
            "children" : [
                2
            ],
            "name" : "plate_1",
            "scale" : [
                3020.42626953125,
                3020.42626953125,
                3020.42626953125
            ],
            "translation" : [
                0.8999990224838257,
                -2.999997138977051,
                1.4286160469055176
            ]
        },
        {
            "children" : [
                1,
                3
            ],
            "name" : "GLTF_SceneRootNode",
            "rotation" : [
                0.7071068286895752,
                0,
                0,
                0.7071068286895752
            ]
        },
        {
            "children" : [
                4
            ],
            "name" : "root"
        },
        {
            "children" : [
                5
            ],
            "name" : "RootNode (model correction matrix)"
        },
        {
            "children" : [
                6
            ],
            "name" : "RootNode (gltf orientation matrix)"
        }
    ],
    "materials" : [
        {
            "alphaCutoff" : 0.07091263681650162,
            "alphaMode" : "MASK",
            "doubleSided" : true,
            "emissiveFactor" : [
                1,
                1,
                1
            ],
            "emissiveTexture" : {
                "index" : 0,
                "texCoord" : 0
            },
            "name" : "6609227_preview",
            "pbrMetallicRoughness" : {}
        },
        {
            "emissiveFactor" : [
                1,
                1,
                1
            ],
            "name" : "New_Material_1",
            "pbrMetallicRoughness" : {}
        }
    ],
    "meshes" : [
        {
            "name" : "Mesh_0",
            "primitives" : [
                {
                    "attributes" : {
                        "POSITION" : 0,
                        "NORMAL" : 1,
                        "TEXCOORD_0" : 2
                    },
                    "indices" : 3,
                    "material" : 0
                }
            ]
        },
        {
            "name" : "Mesh_1",
            "primitives" : [
                {
                    "attributes" : {
                        "POSITION" : 4,
                        "NORMAL" : 5,
                        "TEXCOORD_0" : 6
                    },
                    "indices" : 7,
                    "material" : 1
                }
            ]
        }
    ],
    "textures" : [
        {
            "source" : 0
        }
    ],
    "images" : [
        {
            "bufferView" : 4,
            "mimeType" : "image/png",
            "name" : "6609227_preview_baseColor"
        }
    ],
    "accessors" : [
        {
            "bufferView" : 0,
            "componentType" : 5126,
            "count" : 459,
            "max" : [
                5,
                5,
                1.1102230246251565e-16
            ],
            "min" : [
                -5,
                -5,
                -1.1102230246251565e-16
            ],
            "type" : "VEC3"
        },
        {
            "bufferView" : 1,
            "componentType" : 5126,
            "count" : 459,
            "type" : "VEC3"
        },
        {
            "bufferView" : 2,
            "componentType" : 5126,
            "count" : 459,
            "type" : "VEC2"
        },
        {
            "bufferView" : 3,
            "componentType" : 5123,
            "count" : 600,
            "type" : "SCALAR"
        },
        {
            "bufferView" : 5,
            "componentType" : 5126,
            "count" : 805,
            "max" : [
                0.022290851920843124,
                0.022290868684649467,
                0.0004497307527344674
            ],
            "min" : [
                -0.022290851920843124,
                -0.022290850058197975,
                -0.002791178645566106
            ],
            "type" : "VEC3"
        },
        {
            "bufferView" : 6,
            "componentType" : 5126,
            "count" : 805,
            "type" : "VEC3"
        },
        {
            "bufferView" : 7,
            "componentType" : 5126,
            "count" : 805,
            "type" : "VEC2"
        },
        {
            "bufferView" : 8,
            "componentType" : 5123,
            "count" : 1800,
            "type" : "SCALAR"
        }
    ],
    "bufferViews" : [
        {
            "buffer" : 0,
            "byteLength" : 5508,
            "byteOffset" : 0
        },
        {
            "buffer" : 0,
            "byteLength" : 5508,
            "byteOffset" : 5508
        },
        {
            "buffer" : 0,
            "byteLength" : 3672,
            "byteOffset" : 11016
        },
        {
            "buffer" : 0,
            "byteLength" : 1200,
            "byteOffset" : 14688
        },
        {
            "buffer" : 0,
            "byteLength" : 197359,
            "byteOffset" : 15888
        },
        {
            "buffer" : 0,
            "byteLength" : 9660,
            "byteOffset" : 213248
        },
        {
            "buffer" : 0,
            "byteLength" : 9660,
            "byteOffset" : 222908
        },
        {
            "buffer" : 0,
            "byteLength" : 6440,
            "byteOffset" : 232568
        },
        {
            "buffer" : 0,
            "byteLength" : 3600,
            "byteOffset" : 239008
        }
    ],
    "buffers" : [
        {
            "byteLength" : 242608,
            "uri" : "data:application/octet-stream;base64,"
        }
    ]
}
